<svg id="Icons" height="512" viewBox="0 0 60 60" width="512" xmlns="http://www.w3.org/2000/svg"><path d="m40 6a1 1 0 0 0 0-2h-1v-1a1 1 0 0 0 -2 0v1h-2v-1a1 1 0 0 0 -2 0v1h-2v-1a1 1 0 0 0 -2 0v1h-2v-1a1 1 0 0 0 -2 0v1h-2v-1a1 1 0 0 0 -2 0v1h-1a1 1 0 0 0 0 2h1v2h-1a1 1 0 0 0 0 2h1v2h-1a1 1 0 0 0 0 2h1v2h-1a1 1 0 0 0 0 2h1v2h-1a1 1 0 0 0 0 2h1v1a1 1 0 0 0 2 0v-1h2v1a1 1 0 0 0 2 0v-1h2v1a1 1 0 0 0 2 0v-1h2v1a1 1 0 0 0 2 0v-1h2v1a1 1 0 0 0 2 0v-1h1a1 1 0 0 0 0-2h-1v-2h1a1 1 0 0 0 0-2h-1v-2h1a1 1 0 0 0 0-2h-1v-2h1a1 1 0 0 0 0-2h-1v-2zm-3 12a2 2 0 0 1 -2 2h-10a2 2 0 0 1 -2-2v-10a2 2 0 0 1 2-2h10a2 2 0 0 1 2 2z"/><path d="m25 18h10v-10h-10zm3-8h4a1 1 0 0 1 0 2h-4a1 1 0 0 1 0-2z"/><path d="m6 52h6v2h-6z"/><path d="m2 49a1 1 0 0 0 1 1h12a1 1 0 0 0 1-1v-1h-14z"/><path d="m56 56h-10a1 1 0 0 0 0 2h10a1 1 0 0 0 0-2z"/><path d="m14 56h-10a1 1 0 0 0 0 2h10a1 1 0 0 0 0-2z"/><path d="m23 49a1 1 0 0 0 1 1h12a1 1 0 0 0 1-1v-1h-14z"/><path d="m44 49a1 1 0 0 0 1 1h12a1 1 0 0 0 1-1v-1h-14z"/><path d="m35 56h-10a1 1 0 0 0 0 2h10a1 1 0 0 0 0-2z"/><path d="m27 52h6v2h-6z"/><path d="m48 52h6v2h-6z"/><path d="m57 37h-5v-4a2 2 0 0 0 -2-2h-19v-2a1 1 0 0 0 -2 0v2h-19a2 2 0 0 0 -2 2v4h-5a1 1 0 0 0 -1 1v8h14v-8a1 1 0 0 0 -1-1h-5v-4h19v4h-5a1 1 0 0 0 -1 1v8h14v-8a1 1 0 0 0 -1-1h-5v-4h19v4h-5a1 1 0 0 0 -1 1v8h14v-8a1 1 0 0 0 -1-1zm-44.1 2.553a1 1 0 0 1 -.448 1.342l-6 3a1 1 0 0 1 -.894-1.79l6-3a1 1 0 0 1 1.342.448zm21 0a1 1 0 0 1 -.448 1.342l-6 3a1 1 0 0 1 -.894-1.79l6-3a1 1 0 0 1 1.342.448zm20.547 1.347-6 3a1 1 0 0 1 -.894-1.79l6-3a1 1 0 1 1 .894 1.79z"/></svg>