<svg width="18" height="16" viewBox="0 0 18 16" fill="none" xmlns="http://www.w3.org/2000/svg">
<path d="M16 12.85H15.25V13.6V14.4C15.25 14.5468 15.2139 14.6841 15.15 14.8039V14.4V12.75H16H16.75V12V11.2V10.45H16H15.15V9.6C15.15 6.97779 13.0222 4.85 10.4 4.85H7.2C4.57779 4.85 2.45 6.97779 2.45 9.6V10.45H1.6H0.85V11.2V12V12.75H1.6H2.45V14.4V14.8C2.38493 14.678 2.35 14.5408 2.35 14.4V13.6V12.85H1.6H0.8C0.788583 12.85 0.776666 12.846 0.76533 12.8347C0.753993 12.8233 0.75 12.8114 0.75 12.8V10.4C0.75 10.3886 0.753993 10.3767 0.76533 10.3653C0.776667 10.354 0.788583 10.35 0.8 10.35H1.6H2.35V9.6C2.35 6.91821 4.51821 4.75 7.2 4.75H8H8.75V4V2.984V2.54695L8.36976 2.33148C8.12062 2.1903 7.95 1.91716 7.95 1.6C7.95 1.13421 8.33421 0.75 8.8 0.75C9.26579 0.75 9.65 1.13421 9.65 1.6C9.65 1.91716 9.47939 2.1903 9.23024 2.33148L8.85 2.54695V2.984V4V4.75H9.6H10.4C13.0818 4.75 15.25 6.91821 15.25 9.6V10.35H16H16.8C16.8114 10.35 16.8233 10.354 16.8347 10.3653C16.846 10.3767 16.85 10.3886 16.85 10.4V12.8C16.85 12.8114 16.846 12.8233 16.8347 12.8347C16.8233 12.846 16.8114 12.85 16.8 12.85H16ZM14.4 15.15H14.8039C14.6841 15.2139 14.5468 15.25 14.4 15.25H3.2C3.0592 15.25 2.92201 15.2151 2.8 15.15H3.2H14.4ZM12.45 10.8C12.45 11.2738 12.0738 11.65 11.6 11.65C11.1262 11.65 10.75 11.2738 10.75 10.8C10.75 10.3287 11.1318 9.95 11.6 9.95C12.0658 9.95 12.45 10.3342 12.45 10.8ZM5.15 10.8C5.15 10.3342 5.53421 9.95 6 9.95C6.47379 9.95 6.85 10.3262 6.85 10.8C6.85 11.2713 6.46823 11.65 6 11.65C5.53421 11.65 5.15 11.2658 5.15 10.8Z" stroke="#001B36" stroke-width="1.5"/>
</svg>
