<svg width="24" height="24" viewBox="0 0 24 24" fill="none" xmlns="http://www.w3.org/2000/svg">
<path d="M10.6494 2.8072L10.6493 2.80722C9.26506 3.02244 7.96485 3.51204 6.89165 4.23564C4.76966 5.65692 3.42967 7.65044 2.89093 10.1769C2.76136 10.765 2.75679 10.8986 2.75679 12C2.75679 13.1015 2.76136 13.2351 2.89093 13.8232C3.15462 15.0584 3.56639 16.0802 4.18144 17.02L4.18151 17.0201C5.60751 19.1958 7.6064 20.5607 10.182 21.114L10.1822 21.114C10.465 21.1745 10.6454 21.2093 10.8962 21.2271C11.1416 21.2446 11.4533 21.2456 12.0004 21.2432M10.6494 2.8072L21.1092 13.8226C20.8455 15.0581 20.4337 16.08 19.8185 17.02L19.8185 17.02C18.3974 19.1908 16.3841 20.5655 13.8321 21.1093L13.8315 21.1094C13.2399 21.2337 13.0987 21.2432 12.0004 21.2432M10.6494 2.8072C10.9254 2.76454 11.294 2.74016 11.6093 2.73527C11.7673 2.73282 11.9157 2.7352 12.0352 2.74319C12.0948 2.74718 12.1502 2.75274 12.1975 2.76049C12.238 2.76712 12.2957 2.77866 12.344 2.80455L12.3454 2.80527C12.4096 2.84034 12.4616 2.89905 12.4963 2.94506C12.5348 2.99611 12.571 3.05715 12.5971 3.11924L12.5971 3.11923L12.5985 3.12257C12.6276 3.19535 12.6565 3.27482 12.6554 3.36502C12.6542 3.45417 12.624 3.53235 12.5927 3.60484C12.5264 3.76999 12.4104 3.88741 12.2362 3.95639C12.0754 4.0201 11.8711 4.04005 11.6256 4.04005C11.0966 4.04005 10.1971 4.20698 9.47977 4.43814M10.6494 2.8072L9.41759 4.24805M12.0004 21.2432C12.0003 21.2432 12.0001 21.2432 12 21.2432V21.0432L12.0009 21.2432C12.0007 21.2432 12.0006 21.2432 12.0004 21.2432ZM3.97439 13.5841C3.87839 13.1424 3.86399 12.9504 3.86879 12C3.86879 11.0592 3.88319 10.8528 3.97439 10.4208M3.97439 13.5841L4.16976 13.5413C4.16977 13.5413 4.16979 13.5414 4.1698 13.5415M3.97439 13.5841L4.16982 13.5416C4.16981 13.5415 4.16981 13.5415 4.1698 13.5415M3.97439 13.5841L4.1698 13.5415M4.1698 13.5415C4.07868 13.1223 4.064 12.9484 4.06878 12.0011L4.06879 12C4.06879 11.062 4.08341 10.8728 4.16992 10.4629M4.1698 13.5415C4.4097 14.6374 4.89435 15.778 5.44792 16.5643C5.60861 16.7892 5.96601 17.2082 6.23979 17.4914L6.24036 17.492C7.43568 18.7389 8.71961 19.4494 10.4626 19.8301C10.8775 19.9167 11.0624 19.9312 12 19.9312C12.942 19.9312 13.1224 19.9167 13.5424 19.83C15.238 19.4588 16.5557 18.7382 17.7172 17.544C18.6184 16.6147 19.1591 15.7286 19.5574 14.529L19.5574 14.5288C19.7193 14.0434 19.811 13.7106 19.8637 13.3533C19.9167 12.9942 19.9312 12.6033 19.9312 12C19.9312 11.0579 19.9166 10.8775 19.8299 10.4574C19.545 9.15065 19.0158 8.01075 18.2584 7.05724L18.2479 7.4786L18.2479 7.47878C18.2361 7.94058 18.2288 8.19658 18.2092 8.34988C18.199 8.42935 18.1838 8.49755 18.1546 8.55935C18.1245 8.62318 18.0856 8.66647 18.056 8.69866L18.056 8.69867L18.0548 8.69988C17.8657 8.90201 17.5677 8.98541 17.3087 8.87747L17.3061 8.87643C17.2432 8.85062 17.1518 8.81308 17.0797 8.73206C17.0043 8.64722 16.9696 8.53928 16.9489 8.41562C16.909 8.17673 16.9047 7.75284 16.8976 6.97658M4.1698 13.5415L21.1092 13.8226C21.2336 13.2401 21.2432 13.0985 21.2432 12C21.2432 10.9016 21.2336 10.76 21.1092 10.1775M4.16992 10.4629C4.16987 10.4631 4.16982 10.4634 4.16977 10.4636L3.97439 10.4208M4.16992 10.4629C4.16997 10.4626 4.17002 10.4624 4.17007 10.4622L3.97439 10.4208M4.16992 10.4629C4.33458 9.71035 4.53583 9.13033 4.85987 8.46346L4.85995 8.4633C5.23387 7.69209 5.60992 7.16204 6.26388 6.48455L6.26413 6.4843C7.21161 5.49929 8.23973 4.85007 9.47977 4.43814M3.97439 10.4208C4.14239 9.65285 4.34879 9.05765 4.67999 8.37605C5.06399 7.58405 5.45279 7.03685 6.11999 6.34565C7.08959 5.33765 8.14559 4.67045 9.41759 4.24805M9.47977 4.43814C9.47949 4.43823 9.47922 4.43832 9.47895 4.4384L9.41759 4.24805M9.47977 4.43814C9.48005 4.43805 9.48033 4.43795 9.48062 4.43786L9.41759 4.24805M16.8976 6.97658C16.8976 6.97664 16.8976 6.9767 16.8976 6.97676L17.0976 6.97445L16.8976 6.97628C16.8976 6.97638 16.8976 6.97648 16.8976 6.97658ZM16.8976 6.97658C16.8881 6.15492 16.8858 5.69401 16.9304 5.43133C16.9535 5.29553 16.9941 5.17688 17.0817 5.08752C17.1671 5.00039 17.2738 4.96704 17.3532 4.94417M17.3532 4.94417C17.3528 4.94427 17.3525 4.94438 17.3521 4.94448L17.4096 5.13605L17.3543 4.94386C17.3539 4.94396 17.3535 4.94406 17.3532 4.94417ZM17.3532 4.94417C17.4142 4.92607 17.5099 4.91656 17.6068 4.90985C17.7125 4.90252 17.8452 4.89722 17.9942 4.89366C18.2927 4.88653 18.6633 4.88625 19.0284 4.89167C19.3933 4.8971 19.755 4.90826 20.0352 4.92422C20.175 4.93218 20.2971 4.94148 20.3902 4.95219C20.4364 4.95751 20.4789 4.96356 20.5143 4.97069C20.5319 4.97424 20.5508 4.97867 20.5691 4.98441C20.5835 4.98894 20.6126 4.99873 20.6415 5.0183M20.6415 5.0183C20.9879 5.25012 21.002 5.73315 20.7286 6.02612L20.7274 6.0274C20.6625 6.09574 20.5914 6.14884 20.4751 6.17616C20.3811 6.19822 20.2588 6.20249 20.0964 6.20482M20.6415 5.0183C20.6421 5.01867 20.6426 5.01904 20.6431 5.01941L20.5296 5.18402L20.6405 5.01764C20.6409 5.01786 20.6412 5.01808 20.6415 5.0183ZM20.0964 6.20482C19.8833 6.20957 19.5378 6.22378 19.3205 6.23791M20.0964 6.20482C20.0961 6.20482 20.0959 6.20483 20.0956 6.20483L20.0928 6.00485M20.0964 6.20482C20.0967 6.20481 20.0969 6.20481 20.0972 6.2048L20.0928 6.00485M19.3205 6.23791L19.293 6.24022M19.3205 6.23791C19.3198 6.23795 19.3192 6.23799 19.3186 6.23803L19.3056 6.03845M19.3205 6.23791L19.3224 6.23774L19.3056 6.03845M19.293 6.24022C20.2131 7.41588 20.7866 8.65265 21.1092 10.1775M19.293 6.24022L19.2849 6.24091L19.0547 6.26032L19.1328 6.36005C20.0352 7.51205 20.5968 8.72165 20.9136 10.2192M19.293 6.24022C19.2921 6.23905 19.2911 6.23789 19.2902 6.23672L19.1455 6.05195L19.3056 6.03845M21.1092 10.1775C21.1092 10.1776 21.1092 10.1777 21.1093 10.1779L20.9136 10.2192M21.1092 10.1775L20.9136 10.2192M20.9136 10.2192L20.5824 5.88965C20.4912 5.98565 20.4288 6.00005 20.0928 6.00485M19.3056 6.03845C19.5264 6.02405 19.8768 6.00965 20.0928 6.00485M18.048 7.47365C18.024 8.40965 18.0192 8.44325 17.9088 8.56325C17.7696 8.71205 17.5584 8.76485 17.3856 8.69285L18.048 7.47365ZM18.048 7.47365L18.0643 6.8146L18.048 7.47365ZM4.34879 16.9104C5.74559 19.0416 7.69919 20.376 10.224 20.9184L4.34879 16.9104Z" fill="#48454E" stroke="#48454E" stroke-width="0.4"/>
<path d="M11.3146 6.78701L11.3144 6.78708C10.7321 6.95345 10.0881 7.4214 9.76914 7.92672C9.34801 8.58301 9.23621 9.50085 9.48044 10.2726C9.89609 11.588 11.2654 12.3812 12.5827 12.0726L12.5829 12.0726C13.7961 11.784 14.6421 10.7076 14.6421 9.44156C14.6421 9.02675 14.5875 8.68042 14.4615 8.36748L11.3146 6.78701ZM11.3146 6.78701C11.4412 6.75157 11.7393 6.72277 11.976 6.72276M11.3146 6.78701L11.976 6.72276M11.976 6.72276C12.3694 6.72035 12.6979 6.77258 13.0002 6.89755C13.3025 7.02252 13.5754 7.21892 13.8593 7.50045L11.976 6.72276ZM12.5826 7.82758L12.5824 7.82753C12.2389 7.69756 11.7428 7.70213 11.4083 7.8275C11.248 7.88937 11.071 8.00873 10.9122 8.15691C10.7535 8.30505 10.6161 8.47914 10.533 8.64768L10.533 8.64768L10.5323 8.64892C10.4657 8.77502 10.4327 8.84987 10.4149 8.94826C10.3967 9.04916 10.3941 9.17632 10.3941 9.40796C10.3941 9.63671 10.3978 9.76555 10.4156 9.86738C10.4329 9.96707 10.464 10.0424 10.5234 10.1636L10.5235 10.1637C10.766 10.6627 11.1847 10.9796 11.7416 11.0966L11.7417 11.0966C12.3976 11.2352 13.1446 10.8373 13.4768 10.1636C13.5362 10.0424 13.5673 9.96707 13.5847 9.86738C13.6024 9.76555 13.6061 9.63671 13.6061 9.40796C13.6061 9.17632 13.6036 9.04916 13.5853 8.94826C13.5675 8.84987 13.5345 8.77502 13.4679 8.64892L13.4679 8.64893L13.4673 8.64768C13.295 8.29847 12.9156 7.95248 12.5826 7.82758ZM11.3905 7.78076C11.7361 7.65116 12.2449 7.64636 12.6001 7.78076H11.3905Z" fill="#48454E" stroke="#48454E" stroke-width="0.1"/>
<path d="M10.6866 12.6467L10.6865 12.6467C9.76031 12.7962 8.94945 13.0472 8.09568 13.4476L8.09562 13.4476C7.81133 13.5814 7.64416 13.6652 7.5318 13.7499C7.41574 13.8375 7.35873 13.9255 7.29 14.0605C7.24339 14.1511 7.21901 14.2239 7.20841 14.386C7.19805 14.5445 7.20053 14.793 7.20771 15.2361L7.25771 15.2353M10.6866 12.6467L16.7425 15.2353M10.6866 12.6467C11.0202 12.5931 11.6072 12.5765 12.1926 12.5897C12.7782 12.6029 13.3686 12.6461 13.7091 12.7142L13.7094 12.7143C14.409 12.859 15.2769 13.1434 15.905 13.4478M10.6866 12.6467L13.6993 12.7633C14.3953 12.9073 15.2593 13.1905 15.8833 13.4929M7.25771 15.2353L7.20771 15.236C7.21489 15.7026 7.21967 15.9483 7.23866 16.1064C7.25828 16.2697 7.29365 16.3431 7.35747 16.4634C7.52602 16.7855 7.75524 16.9994 8.09587 17.1574L8.09682 17.1579L8.09682 17.1578L8.37042 17.2778L8.38009 17.2821L8.39064 17.2821L12.053 17.2725L12.0531 17.2725L15.7203 17.2581L15.7322 17.258L15.7429 17.2526L15.9589 17.1422L15.9593 17.1419L15.9593 17.1419C16.2611 16.9836 16.4843 16.7604 16.6426 16.4636L16.6427 16.4635C16.7065 16.3431 16.7419 16.2698 16.7616 16.1064C16.7805 15.9483 16.7853 15.7026 16.7925 15.236M7.25771 15.2353C7.27211 16.1713 7.27691 16.2049 7.40171 16.4401L8.11691 13.4929C7.54571 13.7617 7.46891 13.8193 7.33451 14.0833C7.24811 14.2513 7.24331 14.3473 7.25771 15.2353ZM16.7925 15.236L16.7425 15.2353M16.7925 15.236C16.7925 15.236 16.7925 15.2361 16.7925 15.2361L16.7425 15.2353M16.7925 15.236C16.7997 14.793 16.8022 14.5445 16.7918 14.386C16.7812 14.2239 16.7568 14.1511 16.7102 14.0604L16.7101 14.0602C16.6413 13.9275 16.5843 13.8409 16.4684 13.7535C16.3562 13.6689 16.1893 13.584 15.905 13.4478M16.7425 15.2353C16.7569 14.3473 16.7521 14.2513 16.6657 14.0833C16.5313 13.8241 16.4545 13.7665 15.8833 13.4929M15.905 13.4478C15.905 13.4478 15.9051 13.4478 15.9051 13.4479L15.8833 13.4929M15.905 13.4478C15.905 13.4478 15.9049 13.4478 15.9049 13.4478L15.8833 13.4929M15.3723 14.3253L15.3722 14.3252C14.8433 14.0727 14.2087 13.8626 13.583 13.7241C13.2783 13.658 12.7388 13.616 12.1934 13.6034C11.648 13.5909 11.1034 13.6078 10.7888 13.6574C9.99189 13.7863 9.13773 14.0584 8.47072 14.3966L8.47047 14.3968L8.21011 14.527V15.1969C8.21011 15.4583 8.21492 15.6388 8.22612 15.7667C8.23735 15.895 8.25469 15.9652 8.27663 16.0093C8.28512 16.0255 8.29263 16.041 8.29938 16.0549C8.30076 16.0577 8.30211 16.0605 8.30343 16.0632C8.31146 16.0797 8.31841 16.0935 8.32572 16.106C8.33975 16.1299 8.35448 16.1477 8.37743 16.163C8.42706 16.1961 8.5219 16.2224 8.74475 16.2396C9.14624 16.2705 9.92641 16.2704 11.5044 16.2701C11.6616 16.2701 11.8267 16.2701 12.0001 16.2701C12.1735 16.2701 12.3386 16.2701 12.4958 16.2701C14.0738 16.2704 14.854 16.2705 15.2555 16.2396C15.4783 16.2224 15.5732 16.1961 15.6228 16.163C15.6457 16.1477 15.6605 16.1299 15.6745 16.106C15.6818 16.0935 15.6888 16.0797 15.6968 16.0632C15.6981 16.0605 15.6994 16.0577 15.7008 16.0549C15.7076 16.041 15.7151 16.0256 15.7236 16.0093C15.7455 15.9652 15.7629 15.8951 15.7741 15.7661C15.7853 15.6376 15.7901 15.4559 15.7901 15.1921V14.5229L15.3723 14.3253Z" fill="#48454E" stroke="#48454E" stroke-width="0.1"/>
</svg>
