<svg fill="none" height="512" viewBox="0 0 32 32" width="512" xmlns="http://www.w3.org/2000/svg"><path d="m12 2c-3.85547 0-7 3.14453-7 7 0 2.4102 1.23047 4.5508 3.09375 5.8125-3.56641 1.5313-6.09375 5.0703-6.09375 9.1875h2c0-4.4297 3.57031-8 8-8 1.375 0 2.6562.3594 3.7812.9688-1.1093 1.375-1.7812 3.1328-1.7812 5.0312 0 4.4062 3.5938 8 8 8s8-3.5938 8-8-3.5938-8-8-8c-1.7461 0-3.3711.5742-4.6875 1.5312-.4414-.2773-.9219-.5117-1.4063-.7187 1.8633-1.2617 3.0938-3.4023 3.0938-5.8125 0-3.85547-3.1445-7-7-7zm0 2c2.7734 0 5 2.22656 5 5 0 2.7734-2.2266 5-5 5-2.77344 0-5-2.2266-5-5 0-2.77344 2.22656-5 5-5zm10 12c3.3242 0 6 2.6758 6 6s-2.6758 6-6 6-6-2.6758-6-6 2.6758-6 6-6zm3.2812 3.2812-3.2812 3.2813-2.2812-2.2813-1.4376 1.4376 3 3 .7188.6874.7188-.6874 4-4z" fill="#000"/></svg>