<svg width="24" height="24" viewBox="0 0 24 24" fill="none" xmlns="http://www.w3.org/2000/svg">
<path d="M12.8693 2.4492L12.8695 2.44925C13.767 2.66426 14.5186 3.18247 15.0374 3.94423C15.8543 5.14868 15.8543 6.85125 15.0374 8.05571L12.8693 2.4492ZM12.8693 2.4492C12.1552 2.27649 11.1886 2.35193 10.5372 2.63103C9.74865 2.97169 8.99483 3.71194 8.65487 4.48966L8.6546 4.49026C8.25812 5.38118 8.25812 6.61882 8.6546 7.50974L8.65461 7.50974L8.65487 7.51035C8.99497 8.28837 9.74889 9.03311 10.5368 9.3688L10.537 9.36886C11.4089 9.74187 12.6375 9.73259 13.5099 9.3454L13.5102 9.34524M12.8693 2.4492L13.5102 9.34524M13.5102 9.34524C14.0824 9.09406 14.668 8.59807 15.0373 8.05587L13.5102 9.34524ZM11.3236 0.716985L11.324 0.716939C11.6831 0.6674 12.1541 0.676492 12.6138 0.729254C13.0733 0.781984 13.5304 0.879368 13.8609 1.01106C15.2319 1.55266 16.1829 2.42424 16.7895 3.70575C17.4985 5.19215 17.4985 6.80775 16.7895 8.29415C16.5017 8.90396 16.2121 9.31651 15.7671 9.76633L15.7664 9.7671C15.3165 10.212 14.904 10.5017 14.2941 10.7895C12.9938 11.4103 11.5842 11.4888 10.2344 11.0145C9.77849 10.8575 9.14025 10.5167 8.78537 10.2408C6.83927 8.73964 6.15405 6.14716 7.1128 3.89691C7.84225 2.17375 9.42313 0.985697 11.3236 0.716985Z" fill="#48454E" stroke="#48454E" stroke-width="0.2"/>
<path d="M7.52909 12.6557C7.58525 12.649 7.76024 12.6436 8.01845 12.639C8.28087 12.6343 8.63677 12.6304 9.06052 12.6274C9.90809 12.6214 11.028 12.619 12.2162 12.6214H12.2163C12.4275 12.6221 12.6289 12.6227 12.8209 12.6232C14.7739 12.6289 15.7623 12.6318 16.3537 12.6642C16.6799 12.6821 16.8896 12.7091 17.076 12.7515C17.2332 12.7873 17.3726 12.8339 17.5471 12.8922C17.5778 12.9025 17.6095 12.9131 17.6427 12.9241L17.643 12.9242C19.7563 13.6319 21.2734 15.3747 21.7315 17.6163C21.811 17.994 21.82 18.3489 21.82 20.3678V20.3739C21.82 21.4989 21.82 22.0786 21.8073 22.3927C21.801 22.549 21.7914 22.6471 21.7747 22.7161C21.7563 22.7921 21.7292 22.8324 21.699 22.8714C21.6402 22.9511 21.5289 23.0624 21.4492 23.1212L21.3206 23.2212L21.2935 23.2422H21.2592H12H2.74083H2.70652L2.67944 23.2212L2.5509 23.1212C2.47115 23.0624 2.35982 22.9511 2.30105 22.8713C2.27082 22.8324 2.24378 22.7921 2.22537 22.7161C2.20865 22.6471 2.19902 22.549 2.19271 22.3927C2.18003 22.0787 2.18003 21.499 2.18003 20.3742V20.3678C2.18003 18.349 2.18904 17.994 2.26851 17.6163C2.68754 15.5607 3.97998 13.9249 5.82603 13.1288L5.82644 13.1286C6.35191 12.9048 7.02354 12.7147 7.52909 12.6557ZM7.52909 12.6557C7.52897 12.6557 7.52885 12.6558 7.52872 12.6558L7.54083 12.755L7.52926 12.6557C7.5292 12.6557 7.52915 12.6557 7.52909 12.6557ZM16.6263 14.365L16.6263 14.365C16.5692 14.3533 16.3913 14.3412 16.1089 14.3308C15.8313 14.3205 15.4629 14.3119 15.0337 14.305C14.1753 14.2913 13.0755 14.2845 11.9761 14.2848C10.8766 14.2851 9.77798 14.2925 8.92207 14.307C8.49404 14.3142 8.12719 14.3232 7.85146 14.334C7.71354 14.3393 7.59903 14.3451 7.51134 14.3513C7.42118 14.3577 7.36576 14.3641 7.34172 14.3695L7.3409 14.3696C5.73677 14.712 4.50636 15.8651 3.99801 17.5173L3.87268 17.9257L3.85363 19.7926L3.85362 19.7929L3.84 21.5782H12H20.1601L20.1464 19.7929L20.1464 19.7926L20.1274 17.9254L20.0021 17.5078C20.0021 17.5077 20.002 17.5076 20.002 17.5074C19.4889 15.8509 18.2493 14.698 16.6263 14.365Z" fill="#48454E" stroke="#48454E" stroke-width="0.2"/>
</svg>
