<svg width="40" height="41" viewBox="0 0 40 41" fill="none" xmlns="http://www.w3.org/2000/svg">
<g clip-path="url(#clip0_941_13334)">
<path d="M40 20.2C40 9.15433 31.0456 0.199951 20 0.199951C8.95437 0.199951 0 9.15417 0 20.2C0 30.1825 7.31375 38.4567 16.875 39.957V25.9812H11.7969V20.2H16.875V15.7937C16.875 10.7812 19.8609 8.01245 24.4292 8.01245C26.6175 8.01245 28.9062 8.40308 28.9062 8.40308V13.325H26.3844C23.8997 13.325 23.125 14.8667 23.125 16.4484V20.2H28.6719L27.7852 25.9812H23.125V39.957C32.6862 38.4567 40 30.1826 40 20.2Z" fill="#1877F2"/>
<path d="M27.7852 25.9812L28.6719 20.2H23.125V16.4484C23.125 14.8665 23.8998 13.325 26.3844 13.325H28.9062V8.40308C28.9062 8.40308 26.6175 8.01245 24.4292 8.01245C19.8609 8.01245 16.875 10.7812 16.875 15.7937V20.2H11.7969V25.9812H16.875V39.957C17.9088 40.119 18.9536 40.2002 20 40.2C21.0464 40.2003 22.0912 40.119 23.125 39.957V25.9812H27.7852Z" fill="white"/>
</g>
<defs>
<clipPath id="clip0_941_13334">
<rect width="40" height="40" fill="white" transform="translate(0 0.199951)"/>
</clipPath>
</defs>
</svg>
