<svg width="32" height="32" viewBox="0 0 32 32" fill="none" xmlns="http://www.w3.org/2000/svg">
<path d="M29.0743 13.3887H28.0003V13.3334H16.0003V18.6667H23.5357C22.4363 21.7714 19.4823 24.0001 16.0003 24.0001C11.5823 24.0001 8.00033 20.4181 8.00033 16.0001C8.00033 11.5821 11.5823 8.00008 16.0003 8.00008C18.0397 8.00008 19.895 8.76941 21.3077 10.0261L25.079 6.25475C22.6977 4.03541 19.5123 2.66675 16.0003 2.66675C8.63699 2.66675 2.66699 8.63675 2.66699 16.0001C2.66699 23.3634 8.63699 29.3334 16.0003 29.3334C23.3637 29.3334 29.3337 23.3634 29.3337 16.0001C29.3337 15.1061 29.2417 14.2334 29.0743 13.3887Z" fill="#FFC107"/>
<path d="M4.2041 9.79408L8.58477 13.0067C9.7701 10.0721 12.6408 8.00008 16.0001 8.00008C18.0394 8.00008 19.8948 8.76941 21.3074 10.0261L25.0788 6.25475C22.6974 4.03541 19.5121 2.66675 16.0001 2.66675C10.8788 2.66675 6.43743 5.55808 4.2041 9.79408Z" fill="#FF3D00"/>
<path d="M15.9999 29.3333C19.4439 29.3333 22.5732 28.0153 24.9392 25.872L20.8125 22.38C19.4289 23.4322 17.7382 24.0013 15.9999 24C12.5319 24 9.58722 21.7886 8.47788 18.7026L4.12988 22.0526C6.33655 26.3706 10.8179 29.3333 15.9999 29.3333Z" fill="#4CAF50"/>
<path d="M29.074 13.3886H28V13.3333H16V18.6666H23.5353C23.0095 20.1442 22.0622 21.4354 20.8107 22.3806L20.8127 22.3793L24.9393 25.8713C24.6473 26.1366 29.3333 22.6666 29.3333 15.9999C29.3333 15.1059 29.2413 14.2333 29.074 13.3886Z" fill="#1976D2"/>
</svg>
