<svg width="191" height="146" viewBox="0 0 191 146" fill="none" xmlns="http://www.w3.org/2000/svg">
<path d="M65.081 45.8731C65.0127 32.2449 75.7709 21.145 89.1182 21.0767C102.465 21.0084 113.338 32.002 113.406 45.6301C113.406 46.3438 113.383 47.0499 113.33 47.7484L130.64 61.6043C132.516 56.5326 133.525 51.0358 133.503 45.2885C133.374 20.1504 113.353 -0.120933 88.7841 0.00054312C64.2079 0.12202 44.3921 20.5984 44.5211 45.7364C44.5515 51.4989 45.6296 57.0109 47.5656 62.075L65.1873 47.8774C65.1114 47.2169 65.081 46.5488 65.081 45.8731Z" fill="url(#paint0_linear_775_8880)"/>
<path d="M86.1724 78.6793L92.4891 73.6228L100.598 76.6066L108.721 69.9861L133.586 89.9159H100.438L86.1724 78.6793Z" fill="url(#paint1_linear_775_8880)"/>
<path d="M91.7147 68.3462L99.7549 71.2768L105.085 67.0707L88.8903 54.2473L44.4148 89.9159L76.6288 89.9083L84.6387 83.3941L78.6104 78.6945L91.7147 68.3462Z" fill="url(#paint2_linear_775_8880)"/>
<path d="M8.03263 123.519C8.03263 131.484 14.5164 137.967 22.4807 137.967H44.9615V145.992H22.4807C10.0825 145.992 0 135.91 0 123.512C0 111.113 10.0825 101.031 22.4807 101.031H44.9615V109.056H22.4807C14.524 109.071 8.03263 115.555 8.03263 123.519Z" fill="#29315F"/>
<path d="M91.912 123.519C91.912 135.917 81.8295 146 69.4313 146C57.0331 146 46.9506 135.917 46.9506 123.519C46.9506 111.121 57.0331 101.039 69.4313 101.039C81.8295 101.039 91.912 111.129 91.912 123.519ZM83.8794 123.519C83.8794 115.555 77.3956 109.071 69.4313 109.071C61.467 109.071 54.9832 115.555 54.9832 123.519C54.9832 131.484 61.467 137.967 69.4313 137.967C77.3956 137.975 83.8794 131.484 83.8794 123.519Z" fill="#29315F"/>
<path d="M122.031 119.093L141.49 146H131.597L116.056 124.552L104.69 134.892V146H96.6649V101.046H104.69V124.036L111.303 118L117.278 112.541L129.805 101.046H141.687L122.031 119.093Z" fill="#29315F"/>
<path d="M190.042 146H181.045L176.938 137.975L167.114 118.706L157.289 137.975L153.182 146H144.193L148.3 137.975L167.121 101.046L185.942 137.975L190.042 146Z" fill="#29315F"/>
<defs>
<linearGradient id="paint0_linear_775_8880" x1="133.685" y1="30.9332" x2="44.2175" y2="31.0747" gradientUnits="userSpaceOnUse">
<stop offset="0.00373316" stop-color="#6002EE"/>
<stop offset="1" stop-color="#4FC3F7"/>
</linearGradient>
<linearGradient id="paint1_linear_775_8880" x1="133.61" y1="80.0057" x2="43.9735" y2="79.8378" gradientUnits="userSpaceOnUse">
<stop stop-color="#EE0290"/>
<stop offset="0.338" stop-color="#EE2955"/>
<stop offset="0.6364" stop-color="#EE4728"/>
<stop offset="0.8663" stop-color="#EE590C"/>
<stop offset="1" stop-color="#EE6002"/>
</linearGradient>
<linearGradient id="paint2_linear_775_8880" x1="133.248" y1="72.2039" x2="44.4488" y2="72.0375" gradientUnits="userSpaceOnUse">
<stop stop-color="#EE0290"/>
<stop offset="0.338" stop-color="#EE2955"/>
<stop offset="0.6364" stop-color="#EE4728"/>
<stop offset="0.8663" stop-color="#EE590C"/>
<stop offset="1" stop-color="#EE6002"/>
</linearGradient>
</defs>
</svg>
