<svg width="17" height="15" viewBox="0 0 17 15" fill="none" xmlns="http://www.w3.org/2000/svg">
<path fill-rule="evenodd" clip-rule="evenodd" d="M6.00144 8.11961L0.178764 1.23429C-0.23348 0.746815 0.113021 0 0.751442 0H15.7514C16.3899 0 16.7364 0.746815 16.3241 1.23429L10.5014 8.11961V14.25C10.5014 14.8075 9.91471 15.1702 9.41603 14.9208L6.41603 13.4208C6.16194 13.2938 6.00144 13.0341 6.00144 12.75V8.11961ZM14.135 1.5H2.36792L7.32412 7.36071C7.43862 7.4961 7.50144 7.66768 7.50144 7.845V12.2865L9.00144 13.0365V7.845C9.00144 7.66768 9.06427 7.4961 9.17876 7.36071L14.135 1.5Z" fill="black"/>
</svg>
