<svg width="37" height="37" viewBox="0 0 37 37" fill="none" xmlns="http://www.w3.org/2000/svg">
<g clip-path="url(#clip0_109_1131)">
<path d="M18.6079 17.6275C19.9652 17.6275 21.292 17.225 22.4206 16.4709C23.5492 15.7168 24.4288 14.645 24.9482 13.391C25.4676 12.137 25.6035 10.7571 25.3387 9.42587C25.0739 8.09463 24.4203 6.8718 23.4606 5.91203C22.5008 4.95226 21.278 4.29865 19.9467 4.03385C18.6155 3.76905 17.2356 3.90495 15.9816 4.42438C14.7276 4.9438 13.6558 5.82342 12.9017 6.95199C12.1476 8.08056 11.7451 9.4074 11.7451 10.7647C11.7451 12.5848 12.4682 14.3304 13.7552 15.6174C15.0422 16.9044 16.7877 17.6275 18.6079 17.6275ZM18.6079 5.86276C19.5774 5.86276 20.5251 6.15026 21.3312 6.68889C22.1374 7.22753 22.7657 7.99311 23.1367 8.88883C23.5077 9.78454 23.6048 10.7702 23.4156 11.721C23.2265 12.6719 22.7596 13.5454 22.0741 14.2309C21.3885 14.9165 20.5151 15.3834 19.5642 15.5725C18.6133 15.7616 17.6277 15.6646 16.732 15.2935C15.8362 14.9225 15.0707 14.2942 14.532 13.4881C13.9934 12.682 13.7059 11.7342 13.7059 10.7647C13.7059 9.46464 14.2224 8.21781 15.1417 7.29852C16.0609 6.37922 17.3078 5.86276 18.6079 5.86276Z" fill="black"/>
<path d="M30.8334 24.853C29.2611 23.1912 27.3665 21.8676 25.2653 20.963C23.1641 20.0584 20.9005 19.5918 18.6128 19.5918C16.3251 19.5918 14.0615 20.0584 11.9603 20.963C9.8591 21.8676 7.96445 23.1912 6.39221 24.853C6.05134 25.217 5.86202 25.6973 5.8628 26.1961V31.353C5.8628 31.873 6.06938 32.3717 6.4371 32.7394C6.80481 33.1072 7.30355 33.3137 7.82358 33.3137H29.3922C29.9122 33.3137 30.411 33.1072 30.7787 32.7394C31.1464 32.3717 31.353 31.873 31.353 31.353V26.1961C31.3564 25.6987 31.1707 25.2186 30.8334 24.853ZM29.3922 31.353H7.82358V26.1863C9.21302 24.7232 10.8856 23.5582 12.7396 22.7621C14.5936 21.9659 16.5902 21.5554 18.6079 21.5554C20.6256 21.5554 22.6222 21.9659 24.4762 22.7621C26.3302 23.5582 28.0028 24.7232 29.3922 26.1863V31.353Z" fill="black"/>
</g>
<defs>
<clipPath id="clip0_109_1131">
<rect width="35.2941" height="35.2941" fill="white" transform="translate(0.960815 0.960815)"/>
</clipPath>
</defs>
</svg>
