<svg width="13" height="13" viewBox="0 0 13 13" fill="none" xmlns="http://www.w3.org/2000/svg">
<path fill-rule="evenodd" clip-rule="evenodd" d="M6.49988 2.64583L5.26615 5.14523C5.18429 5.31108 5.02612 5.42609 4.84311 5.45284L2.08336 5.85621L4.07985 7.8008C4.21253 7.93003 4.27309 8.11629 4.24178 8.29884L3.77073 11.0453L6.23806 9.74777C6.40197 9.66158 6.59779 9.66158 6.7617 9.74777L9.22903 11.0453L8.75798 8.29884C8.72667 8.11629 8.78723 7.93003 8.9199 7.8008L10.9164 5.85621L8.15665 5.45284C7.97364 5.42609 7.81547 5.31108 7.73361 5.14523L6.49988 2.64583ZM4.38811 4.38239L5.99548 1.12602C6.20183 0.707992 6.79793 0.707992 7.00428 1.12602L8.61165 4.38239L12.2062 4.90779C12.6674 4.9752 12.8513 5.54211 12.5174 5.86733L9.9168 8.40027L10.5305 11.9787C10.6094 12.4382 10.127 12.7886 9.71431 12.5716L6.49988 10.8812L3.28545 12.5716C2.87278 12.7886 2.39041 12.4382 2.46922 11.9787L3.08296 8.40027L0.482405 5.86733C0.148509 5.54211 0.332324 4.9752 0.793526 4.90779L4.38811 4.38239Z" fill="#504BEE"/>
</svg>
