<svg width="24" height="24" viewBox="0 0 24 24" fill="none" xmlns="http://www.w3.org/2000/svg">
<g clip-path="url(#clip0_1738_13735)">
<path d="M12 22.25C6.348 22.25 1.75 17.652 1.75 12C1.75 6.348 6.348 1.75 12 1.75C17.652 1.75 22.25 6.348 22.25 12C22.25 17.652 17.652 22.25 12 22.25ZM12 3.75C7.451 3.75 3.75 7.451 3.75 12C3.75 16.549 7.451 20.25 12 20.25C16.549 20.25 20.25 16.549 20.25 12C20.25 7.451 16.549 3.75 12 3.75Z" fill="#FF6702"/>
<path d="M12 5.5C11.448 5.5 11 5.052 11 4.5V1C11 0.448 11.448 0 12 0C12.552 0 13 0.448 13 1V4.5C13 5.052 12.552 5.5 12 5.5Z" fill="#EE6002"/>
<path d="M23 13H19.5C18.948 13 18.5 12.552 18.5 12C18.5 11.448 18.948 11 19.5 11H23C23.552 11 24 11.448 24 12C24 12.552 23.552 13 23 13Z" fill="#EE6002"/>
<path d="M12 24C11.448 24 11 23.552 11 23V19.5C11 18.948 11.448 18.5 12 18.5C12.552 18.5 13 18.948 13 19.5V23C13 23.552 12.552 24 12 24Z" fill="#EE6002"/>
<path d="M4.5 13H1C0.448 13 0 12.552 0 12C0 11.448 0.448 11 1 11H4.5C5.052 11 5.5 11.448 5.5 12C5.5 12.552 5.052 13 4.5 13Z" fill="#EE6002"/>
<path d="M12 15C10.346 15 9 13.654 9 12C9 10.346 10.346 9 12 9C13.654 9 15 10.346 15 12C15 13.654 13.654 15 12 15ZM12 11C11.449 11 11 11.449 11 12C11 12.551 11.449 13 12 13C12.551 13 13 12.551 13 12C13 11.449 12.551 11 12 11Z" fill="#FF7418"/>
</g>
<defs>
<clipPath id="clip0_1738_13735">
<rect width="24" height="24" fill="white"/>
</clipPath>
</defs>
</svg>
