<svg width="24" height="24" viewBox="0 0 24 24" fill="none" xmlns="http://www.w3.org/2000/svg">
<path d="M11.3011 22.4748C11.6855 22.2571 12.3147 22.2571 12.6991 22.4748L14.8096 23.6697C15.1943 23.887 15.6771 23.7457 15.8831 23.3545L17.0126 21.2085C17.2184 20.8173 17.7476 20.4774 18.1885 20.4524L20.6102 20.3166C21.0515 20.2915 21.3813 19.9113 21.3427 19.4713L21.133 17.055C21.0944 16.6146 21.3558 16.0425 21.7135 15.7833L23.6774 14.3596C24.0347 14.1003 24.1064 13.6021 23.8361 13.2525L22.3534 11.3336C22.0831 10.9839 21.9936 10.361 22.1544 9.94935L23.0366 7.69056C23.1975 7.27894 22.9883 6.82107 22.572 6.67255L20.2869 5.86035C19.8706 5.71183 19.4586 5.23656 19.3711 4.80373L18.8921 2.42612C18.8046 1.99286 18.3816 1.72085 17.9513 1.82142L15.5896 2.37307C15.1592 2.47364 14.5557 2.29626 14.2479 1.97928L12.5596 0.237762C12.2518 -0.0792255 11.7484 -0.0792255 11.441 0.237762L9.75231 1.97928C9.44483 2.29626 8.84107 2.47364 8.41087 2.37307L6.04895 1.82142C5.61879 1.72085 5.19521 1.99286 5.10797 2.42612L4.62888 4.80373C4.54168 5.23656 4.1298 5.71183 3.71335 5.86035L1.4282 6.67255C1.01192 6.82107 0.802843 7.27894 0.963543 7.69056L1.84584 9.94935C2.00659 10.361 1.91709 10.9839 1.64687 11.3336L0.163776 13.2525C-0.106405 13.6021 -0.0347321 14.1003 0.32295 14.3596L2.28665 15.7833C2.64438 16.0425 2.90573 16.6146 2.86746 17.055L2.65736 19.4713C2.61909 19.9113 2.94872 20.2915 3.38987 20.3166L5.81128 20.4524C6.2526 20.4774 6.78201 20.8173 6.98765 21.2085L8.11713 23.3545C8.32307 23.7457 8.80585 23.887 9.19056 23.6697L11.3011 22.4748Z" fill="#CDCDCD"/>
<path d="M17.2776 8.17446C16.9098 7.85136 16.3493 7.88743 16.0258 8.25523L10.6723 14.3456L7.97408 11.2762C7.65057 10.908 7.09026 10.8719 6.72246 11.1954C6.35462 11.5185 6.31859 12.079 6.6418 12.4472L10.0062 16.2744C10.1815 16.4739 10.4264 16.5757 10.6726 16.5757C10.8806 16.5757 11.0894 16.5032 11.2578 16.3548C11.2855 16.3307 11.311 16.3048 11.3351 16.2781C11.3362 16.277 11.3374 16.2755 11.3385 16.2744L17.3584 9.42626C17.6815 9.05846 17.6454 8.49793 17.2776 8.17446Z" fill="white"/>
</svg>
