<svg width="25" height="25" viewBox="0 0 25 25" fill="none" xmlns="http://www.w3.org/2000/svg">
<path d="M11.6343 22.8051C12.0187 22.5874 12.648 22.5874 13.0324 22.8051L15.1429 24.0001C15.5276 24.2173 16.0104 24.076 16.2163 23.6848L17.3459 21.5389C17.5517 21.1476 18.0808 20.8077 18.5217 20.7827L20.9435 20.6469C21.3848 20.6218 21.7145 20.2416 21.6759 19.8016L21.4663 17.3854C21.4277 16.9449 21.6891 16.3729 22.0468 16.1136L24.0107 14.6899C24.368 14.4306 24.4397 13.9325 24.1694 13.5828L22.6867 11.6639C22.4164 11.3142 22.3269 10.6913 22.4877 10.2797L23.3699 8.02088C23.5307 7.60926 23.3215 7.15139 22.9052 7.00287L20.6201 6.19067C20.2038 6.04215 19.7918 5.56688 19.7044 5.13405L19.2253 2.75644C19.1379 2.32318 18.7148 2.05118 18.2845 2.15175L15.9229 2.7034C15.4924 2.80397 14.8889 2.62659 14.5812 2.3096L12.8928 0.568085C12.585 0.251097 12.0816 0.251097 11.7742 0.568085L10.0856 2.3096C9.77808 2.62659 9.17432 2.80397 8.74412 2.7034L6.38221 2.15175C5.95205 2.05118 5.52846 2.32318 5.44122 2.75644L4.96213 5.13405C4.87493 5.56688 4.46306 6.04215 4.0466 6.19067L1.76145 7.00287C1.34517 7.15139 1.13609 7.60926 1.29679 8.02088L2.1791 10.2797C2.33984 10.6913 2.25034 11.3142 1.98012 11.6639L0.497028 13.5828C0.226847 13.9325 0.29852 14.4306 0.656201 14.6899L2.61991 16.1136C2.97763 16.3729 3.23899 16.9449 3.20071 17.3854L2.99062 19.8016C2.95234 20.2416 3.28197 20.6218 3.72312 20.6469L6.14453 20.7827C6.58585 20.8077 7.11526 21.1476 7.3209 21.5389L8.45039 23.6848C8.65632 24.076 9.1391 24.2173 9.52381 24.0001L11.6343 22.8051Z" fill="#0A9AEA"/>
<path d="M17.6109 8.50478C17.2431 8.18168 16.6826 8.21775 16.3591 8.58555L11.0056 14.6759L8.30733 11.6065C7.98382 11.2383 7.42352 11.2022 7.05571 11.5257C6.68787 11.8488 6.65184 12.4093 6.97505 12.7775L10.3395 16.6047C10.5148 16.8042 10.7596 16.906 11.0059 16.906C11.2138 16.906 11.4226 16.8335 11.5911 16.6851C11.6188 16.6611 11.6443 16.6351 11.6683 16.6085C11.6694 16.6073 11.6706 16.6058 11.6717 16.6047L17.6917 9.75659C18.0148 9.38878 17.9787 8.82825 17.6109 8.50478Z" fill="white"/>
</svg>
