<svg width="40" height="41" viewBox="0 0 40 41" fill="none" xmlns="http://www.w3.org/2000/svg">
<path d="M27.2668 23.5332C27.4002 22.4332 27.5002 21.3332 27.5002 20.1999C27.5002 19.0665 27.4002 17.9665 27.2668 16.8665H32.9002C33.1668 17.9332 33.3335 19.0499 33.3335 20.1999C33.3335 21.3499 33.1668 22.4665 32.9002 23.5332M24.3168 32.7999C25.3168 30.9499 26.0835 28.9499 26.6168 26.8665H31.5335C29.9188 29.647 27.357 31.7532 24.3168 32.7999ZM23.9002 23.5332H16.1002C15.9335 22.4332 15.8335 21.3332 15.8335 20.1999C15.8335 19.0665 15.9335 17.9499 16.1002 16.8665H23.9002C24.0502 17.9499 24.1668 19.0665 24.1668 20.1999C24.1668 21.3332 24.0502 22.4332 23.9002 23.5332ZM20.0002 33.4665C18.6168 31.4665 17.5002 29.2499 16.8168 26.8665H23.1835C22.5002 29.2499 21.3835 31.4665 20.0002 33.4665ZM13.3335 13.5332H8.46683C10.0649 10.7452 12.6248 8.63568 15.6668 7.59987C14.6668 9.44987 13.9168 11.4499 13.3335 13.5332ZM8.46683 26.8665H13.3335C13.9168 28.9499 14.6668 30.9499 15.6668 32.7999C12.6312 31.7526 10.0749 29.6461 8.46683 26.8665ZM7.10016 23.5332C6.8335 22.4665 6.66683 21.3499 6.66683 20.1999C6.66683 19.0499 6.8335 17.9332 7.10016 16.8665H12.7335C12.6002 17.9665 12.5002 19.0665 12.5002 20.1999C12.5002 21.3332 12.6002 22.4332 12.7335 23.5332M20.0002 6.91654C21.3835 8.91654 22.5002 11.1499 23.1835 13.5332H16.8168C17.5002 11.1499 18.6168 8.91654 20.0002 6.91654ZM31.5335 13.5332H26.6168C26.0952 11.469 25.3228 9.47636 24.3168 7.59987C27.3835 8.64987 29.9335 10.7665 31.5335 13.5332ZM20.0002 3.5332C10.7835 3.5332 3.3335 11.0332 3.3335 20.1999C3.3335 24.6201 5.08944 28.8594 8.21505 31.985C9.76269 33.5326 11.6 34.7603 13.6221 35.5979C15.6442 36.4354 17.8115 36.8665 20.0002 36.8665C24.4204 36.8665 28.6597 35.1106 31.7853 31.985C34.9109 28.8594 36.6668 24.6201 36.6668 20.1999C36.6668 18.0112 36.2357 15.8439 35.3982 13.8218C34.5606 11.7997 33.3329 9.9624 31.7853 8.41476C30.2376 6.86711 28.4003 5.63946 26.3782 4.80188C24.3561 3.9643 22.1889 3.5332 20.0002 3.5332Z" fill="black" fill-opacity="0.7"/>
</svg>
