<svg width="25" height="25" viewBox="0 0 25 25" fill="none" xmlns="http://www.w3.org/2000/svg">
<path d="M9.3882 0.635853C5.96973 0.915388 3.47721 2.249 1.91647 4.62504C0.94975 6.0926 0.50133 7.51357 0.297503 9.72073C0.221796 10.5884 0.221796 14.6184 0.297503 15.4861C0.454741 17.175 0.740099 18.3455 1.2584 19.4171C1.99218 20.937 2.93561 22.0377 4.22846 22.8938C5.57372 23.7906 6.89568 24.2507 8.91648 24.5244C9.69103 24.6292 14.8391 24.6292 15.6137 24.5244C17.6636 24.2449 19.0787 23.7382 20.4415 22.8064C21.7867 21.8863 23.0388 20.2033 23.6095 18.5435C24.1336 17.0177 24.2385 16.1791 24.2734 13.0984C24.3025 10.472 24.2326 9.17913 23.9997 8.03769C23.1669 3.9495 20.2609 1.3114 15.934 0.717384C15.3865 0.641678 14.6586 0.618383 12.6145 0.606735C11.1761 0.595089 9.72015 0.612558 9.3882 0.635853ZM14.8391 0.985271C16.9648 1.14833 18.3682 1.54434 19.7252 2.35383C21.6644 3.50691 23.0388 5.44618 23.5571 7.75816C23.7959 8.78312 23.8366 9.41207 23.8658 12.1026C23.8949 14.9038 23.8541 15.9229 23.6445 17.0702C23.3824 18.5377 22.6894 20.0984 22.0488 20.6575C21.0879 21.5078 18.4381 22.3755 16.1494 22.591C15.3341 22.6667 13.7035 22.6667 12.8999 22.5851C11.1236 22.4104 9.07372 21.8572 7.74011 21.1875L7.29751 20.9662L6.79086 21.17C6.04543 21.467 5.30001 21.6126 4.43228 21.6242C3.76839 21.6301 3.70433 21.6184 3.68686 21.5194C3.67521 21.4612 3.73927 21.3389 3.83827 21.2282C4.32746 20.7274 4.70017 19.8073 4.65358 19.2249C4.62446 18.8522 4.52546 18.6484 3.94892 17.7049C3.30832 16.6625 2.98802 15.8763 2.62113 14.4437C2.26589 13.0518 2.1436 11.9395 2.17854 10.4196C2.24842 7.6708 2.87155 5.48112 4.13528 3.53602C4.60699 2.80807 5.39319 1.96364 5.77172 1.77146C6.59868 1.35798 7.74593 1.11922 9.64444 0.9678C10.2035 0.921211 14.1927 0.932859 14.8391 0.985271Z" fill="white"/>
<path d="M5.42227 9.22569V9.7207H7.02377C8.38067 9.7207 8.62527 9.73235 8.5845 9.80223C8.56121 9.84882 7.82161 10.7631 6.94806 11.8405C6.07451 12.9121 5.33491 13.8613 5.30579 13.9428C5.27085 14.0302 5.24756 14.1991 5.24756 14.3272V14.5543H7.54789C9.83658 14.5543 9.84241 14.5543 9.9647 14.4262C10.0521 14.333 10.0812 14.2224 10.0812 13.9894V13.6808H8.39232C7.22759 13.6808 6.70347 13.6633 6.70347 13.6167C6.70347 13.5818 7.07618 13.0926 7.53042 12.5277C7.98467 11.9628 8.6835 11.0951 9.07951 10.6001C9.82494 9.67411 10.0812 9.24899 10.0812 8.91704V8.73069H7.75172H5.42227V9.22569Z" fill="#1F2329"/>
<path d="M15.7881 11.5144C15.7881 14.7756 15.7474 14.5543 16.3763 14.5543H16.7782V11.6425V8.7307H16.2831H15.7881V11.5144Z" fill="#1F2329"/>
<path d="M19.137 10.0876C18.4731 10.3089 17.9606 10.7399 17.6752 11.3223C17.518 11.6426 17.5063 11.7241 17.5063 12.3123C17.5063 12.8539 17.5238 12.9995 17.6403 13.2382C17.9082 13.8264 18.508 14.3564 19.102 14.5369C19.4456 14.6417 20.1095 14.6359 20.4531 14.5311C21.0355 14.3505 21.6062 13.8614 21.8799 13.2965C22.0313 12.982 22.0488 12.9005 22.0488 12.3414C22.0488 11.7765 22.0371 11.7008 21.8624 11.3397C21.6295 10.8389 21.2451 10.4604 20.7501 10.2274C20.4298 10.076 20.2784 10.0411 19.8649 10.0294C19.5621 10.0178 19.2767 10.0411 19.137 10.0876ZM20.4939 11.1592C20.6569 11.2582 20.8375 11.4387 20.9423 11.6076C21.0937 11.858 21.117 11.9512 21.117 12.3123C21.117 12.6733 21.0937 12.7665 20.9423 13.0111C20.4706 13.774 19.4398 13.9021 18.8167 13.279C18.1004 12.5569 18.3682 11.3805 19.3233 11.0253C19.6611 10.8971 20.1677 10.9554 20.4939 11.1592Z" fill="#1F2329"/>
<path d="M11.9388 10.1575C11.304 10.3905 10.8265 10.8156 10.5586 11.3979C10.4305 11.6833 10.4072 11.8114 10.4014 12.3123C10.4014 12.8597 10.413 12.9237 10.5935 13.2848C11.1701 14.4554 12.527 14.9271 13.6684 14.3563C13.9946 14.1875 14.0411 14.1816 14.0411 14.269C14.0411 14.4379 14.2741 14.5544 14.606 14.5544H14.9147V12.3414V10.1284H14.4779C14.047 10.1284 14.0411 10.1284 14.0411 10.2798C14.0411 10.4545 14.0353 10.4545 13.4879 10.2216C13.2025 10.0993 13.0511 10.076 12.6435 10.076C12.3698 10.076 12.0553 10.1109 11.9388 10.1575ZM13.2025 11.0835C13.7325 11.3281 13.9946 11.7357 14.0004 12.3123C14.0062 13.477 12.6609 14.1059 11.7699 13.3489C11.4496 13.0751 11.3099 12.7548 11.304 12.3239C11.304 11.7532 11.5719 11.3222 12.0902 11.0835C12.4688 10.9029 12.824 10.9029 13.2025 11.0835Z" fill="#1F2329"/>
</svg>
